<?xml version="1.0" encoding="UTF-8" standalone="no"?><!DOCTYPE svg PUBLIC "-//W3C//DTD SVG 1.1//EN" "http://www.w3.org/Graphics/SVG/1.1/DTD/svg11.dtd"><svg width="100%" height="100%" viewBox="0 0 126 111" version="1.1" xmlns="http://www.w3.org/2000/svg" xmlns:xlink="http://www.w3.org/1999/xlink" xml:space="preserve" xmlns:serif="http://www.serif.com/" style="fill-rule:evenodd;clip-rule:evenodd;stroke-linejoin:round;stroke-miterlimit:2;"><g id="Mesa-de-trabajo1" serif:id="Mesa de trabajo1" transform="matrix(1.01613,0,0,0.956897,0,0)"><rect x="0" y="0" width="124" height="116" style="fill:none;"/><clipPath id="_clip1"><rect x="0" y="0" width="124" height="116"/></clipPath><g clip-path="url(#_clip1)"><g transform="matrix(0.984127,0,0,1.04505,0.984127,-5.22523)"><g transform="matrix(1,0,0,0.833333,0,1)"><path d="M112,6L12,6C5.4,6 0,11.4 0,18C0,24.6 5.4,30 12,30L112,30C118.6,30 124,24.6 124,18C124,11.4 118.6,6 112,6Z" style="fill:rgb(31,31,34);fill-rule:nonzero;stroke:rgb(31,31,34);stroke-width:1.09px;"/></g><g transform="matrix(1,0,0,0.833333,0,10.3333)"><path d="M112,50L12,50C5.4,50 0,55.4 0,62C0,68.6 5.4,74 12,74L112,74C118.6,74 124,68.6 124,62C124,55.4 118.6,50 112,50Z" style="fill:rgb(31,31,34);fill-rule:nonzero;stroke:rgb(31,31,34);stroke-width:1.09px;"/></g><g transform="matrix(1,0,0,0.833333,0,17.6667)"><path d="M112,94L12,94C5.4,94 0,99.4 0,106C0,112.6 5.4,118 12,118L112,118C118.6,118 124,112.6 124,106C124,99.4 118.6,94 112,94Z" style="fill:rgb(31,31,34);fill-rule:nonzero;stroke:rgb(31,31,34);stroke-width:1.09px;"/></g></g></g></g></svg>