<?xml version="1.0" encoding="UTF-8" standalone="no"?><!DOCTYPE svg PUBLIC "-//W3C//DTD SVG 1.1//EN" "http://www.w3.org/Graphics/SVG/1.1/DTD/svg11.dtd"><svg width="511px" height="483px" version="1.1" xmlns="http://www.w3.org/2000/svg" xmlns:xlink="http://www.w3.org/1999/xlink" xml:space="preserve" xmlns:serif="http://www.serif.com/" style="fill-rule:evenodd;clip-rule:evenodd;stroke-linejoin:round;stroke-miterlimit:2;"><g id="Mesa-de-trabajo1" serif:id="Mesa de trabajo1" transform="matrix(1,0,0,0.913043,-1.00399,-0.458341)"><rect x="1.004" y="0.502" width="510.996" height="528.998" style="fill:none;"/><clipPath id="_clip1"><rect x="1.004" y="0.502" width="510.996" height="528.998"/></clipPath><g clip-path="url(#_clip1)"><g transform="matrix(1,0,0,1.09524,0.00398627,-49.879)"><path d="M500.692,481.957L500.036,481.79L486.548,427.857C485.516,423.727 482.777,420.23 479.015,418.239C474.463,415.828 362.568,332.22 256.498,391.732C145.428,333.22 37.537,415.829 32.985,418.24C29.223,420.231 26.484,423.728 25.452,427.858L11.964,481.791L11.308,481.958C3.279,483.999 -2.04,503.971 0,512C2.04,520.028 10.664,531.073 18.698,529.034L175,487.472C188.477,513.079 226.189,528.495 255.999,528.495C285.808,528.495 321.38,514.079 334.856,488.472L493.299,529.034C494.539,529.348 495.781,529.5 497.005,529.5C503.702,529.499 510.275,518.788 512,512C514.043,503.97 508.721,483.998 500.692,481.957ZM320.745,436.217C313.029,434.257 305.133,438.659 302.743,446.247C296.289,466.732 277.505,480.494 256,480.494C234.496,480.494 215.712,466.732 209.258,446.247C206.868,438.659 198.974,434.254 191.256,436.217L44.986,473.397L52.873,441.861C78.788,429.502 163.548,371.791 247.399,427.784C252.641,431.285 259.53,431.528 264.601,427.784C340.308,371.891 433.207,429.544 459.13,441.871L467.014,473.397L320.745,436.217Z" style="fill-rule:nonzero;"/><g transform="matrix(1,0,0,1,0,47)"><path d="M427.998,66.501L440.998,66.501L440.998,79.501C440.998,87.785 447.714,94.501 455.998,94.501C464.282,94.501 470.998,87.785 470.998,79.501L470.998,66.501L483.997,66.501C492.281,66.501 498.997,59.785 498.997,51.501C498.997,43.217 492.281,36.502 483.997,36.502L470.998,36.502L470.998,23.502C470.998,15.218 464.282,8.502 455.998,8.502C447.714,8.502 440.998,15.218 440.998,23.502L440.998,36.502L427.998,36.502C419.714,36.502 412.998,43.217 412.998,51.501C412.998,59.785 419.714,66.501 427.998,66.501Z" style="fill-rule:nonzero;"/></g><g transform="matrix(1,0,0,1,0,47)"><path d="M426.228,225.653L330.229,265.652C322.584,268.838 318.967,277.62 322.154,285.267C324.554,291.028 330.13,294.501 336.005,294.501C337.928,294.501 339.883,294.129 341.769,293.343L437.768,253.344C445.414,250.158 449.031,241.376 445.844,233.729C442.657,226.083 433.875,222.464 426.228,225.653Z" style="fill-rule:nonzero;"/></g><g transform="matrix(1,0,0,1,0,47)"><path d="M284.525,278.09C285.694,278.368 286.862,278.502 288.012,278.502C294.798,278.502 300.95,273.863 302.591,266.973L342.59,98.976C344.509,90.916 339.531,82.829 331.473,80.91C323.41,78.992 315.327,83.969 313.408,92.027L273.408,260.024C271.489,268.083 276.466,276.171 284.525,278.09Z" style="fill-rule:nonzero;"/></g><g transform="matrix(1,0,0,1,0,47)"><path d="M209.151,265.619C210.22,273.101 216.637,278.5 223.982,278.5C224.688,278.5 225.403,278.45 226.122,278.348C234.323,277.176 240.021,269.578 238.851,261.377L222.851,149.379C221.679,141.178 214.071,135.477 205.88,136.65C197.679,137.822 191.981,145.42 193.151,153.621L209.151,265.619Z" style="fill-rule:nonzero;"/></g><g transform="matrix(1,0,0,1,0,47)"><path d="M73.791,216.893C67.933,222.75 67.933,232.247 73.791,238.105L149.395,290.104C152.324,293.033 156.163,294.498 160.001,294.498C163.839,294.498 167.679,293.033 170.607,290.104C176.465,284.247 176.465,274.749 170.607,268.891L95.003,216.893C89.147,211.036 79.649,211.036 73.791,216.893Z" style="fill-rule:nonzero;"/></g><g transform="matrix(1,0,0,1,0,47)"><path d="M48.003,94.501C73.919,94.501 95.003,73.417 95.003,47.501C95.003,21.586 73.919,0.502 48.003,0.502C22.088,0.502 1.004,21.586 1.004,47.501C1.004,73.417 22.088,94.501 48.003,94.501ZM48.003,30.502C57.377,30.502 65.003,38.127 65.003,47.501C65.003,56.875 57.377,64.501 48.003,64.501C38.629,64.501 31.004,56.875 31.004,47.501C31.004,38.127 38.629,30.502 48.003,30.502Z" style="fill-rule:nonzero;"/></g><g transform="matrix(1,0,0,1,0,47)"><circle cx="391.999" cy="151.498" r="15"/></g><g transform="matrix(1,0,0,1,-133.802,117)"><circle cx="256" cy="63.5" r="15"/></g></g></g></g></svg>